<svg width="11" height="10" viewBox="0 0 11 10" fill="none" xmlns="http://www.w3.org/2000/svg">
<path d="M8.58497 9.912C8.02497 9.912 7.55697 9.792 7.18097 9.552C6.81297 9.312 6.53297 8.98 6.34097 8.556C6.14897 8.132 6.03697 7.64 6.00497 7.08L7.20497 6.756C7.22897 7.1 7.28097 7.432 7.36097 7.752C7.44897 8.072 7.58897 8.336 7.78097 8.544C7.97297 8.744 8.24097 8.844 8.58497 8.844C8.93697 8.844 9.20097 8.748 9.37697 8.556C9.56097 8.356 9.65297 8.072 9.65297 7.704C9.65297 7.264 9.55297 6.912 9.35297 6.648C9.15297 6.376 8.90097 6.104 8.59697 5.832L6.96497 4.392C6.64497 4.112 6.40897 3.808 6.25697 3.48C6.10497 3.144 6.02897 2.732 6.02897 2.244C6.02897 1.532 6.23297 0.98 6.64097 0.588C7.04897 0.196 7.60497 0 8.30897 0C8.69297 0 9.02897 0.052 9.31697 0.156C9.61297 0.252 9.85697 0.404 10.049 0.612C10.249 0.82 10.405 1.084 10.517 1.404C10.637 1.716 10.717 2.084 10.757 2.508L9.60497 2.82C9.58097 2.5 9.53297 2.208 9.46097 1.944C9.38897 1.672 9.26097 1.456 9.07697 1.296C8.90097 1.128 8.64497 1.044 8.30897 1.044C7.97297 1.044 7.70897 1.136 7.51697 1.32C7.33297 1.496 7.24097 1.76 7.24097 2.112C7.24097 2.408 7.28897 2.652 7.38497 2.844C7.48897 3.036 7.65297 3.232 7.87697 3.432L9.52097 4.872C9.88897 5.192 10.213 5.576 10.493 6.024C10.773 6.464 10.913 6.988 10.913 7.596C10.913 8.076 10.813 8.492 10.613 8.844C10.413 9.188 10.137 9.452 9.78497 9.636C9.44097 9.82 9.04097 9.912 8.58497 9.912Z" fill="#88E788"/>
<path d="M0 9.80399V0.0839844H2.232C2.672 0.0839844 3.052 0.131985 3.372 0.227985C3.7 0.323985 3.972 0.471985 4.188 0.671985C4.404 0.871984 4.564 1.12798 4.668 1.43998C4.772 1.74398 4.824 2.10398 4.824 2.51998C4.824 2.91998 4.772 3.26798 4.668 3.56398C4.572 3.85198 4.42 4.07998 4.212 4.24798C4.012 4.41598 3.752 4.52398 3.432 4.57198C3.824 4.65998 4.14 4.81199 4.38 5.02799C4.62 5.23599 4.796 5.50799 4.908 5.84399C5.028 6.17199 5.088 6.56798 5.088 7.03198C5.088 7.44798 5.04 7.82799 4.944 8.17199C4.848 8.51599 4.696 8.80799 4.488 9.04799C4.288 9.28799 4.028 9.47598 3.708 9.61198C3.396 9.73998 3.024 9.80399 2.592 9.80399H0ZM1.356 8.83199H2.268C2.876 8.83199 3.28 8.69199 3.48 8.41199C3.688 8.12399 3.792 7.66398 3.792 7.03198C3.792 6.62398 3.736 6.28399 3.624 6.01199C3.52 5.73199 3.348 5.52398 3.108 5.38798C2.876 5.24398 2.56 5.17199 2.16 5.17199H1.356V8.83199ZM1.356 4.13998H2.16C2.544 4.13998 2.844 4.08799 3.06 3.98399C3.276 3.87199 3.428 3.69598 3.516 3.45598C3.604 3.21598 3.648 2.90399 3.648 2.51998C3.648 2.07198 3.58 1.74798 3.444 1.54798C3.308 1.34798 3.096 1.22398 2.808 1.17598C2.52 1.11999 2.144 1.09199 1.68 1.09199H1.356V4.13998Z" fill="#88E788"/>
</svg>
